<svg xmlns="http://www.w3.org/2000/svg">
  <symbol id="account" viewBox="0 0 100 100">
    <path d="M74 35h-8.5c-1.9 0-3.5-1.6-3.5-3.5V31c0-5-4-9-9-9H47c-5 0-9 4-9 9v.5c0 1.9-1.6 3.5-3.5 3.5H26c-3.3 0-6 2.7-6 6v4c0 1.1.9 2 2 2h56c1.1 0 2-.9 2-2v-4c0-3.3-2.7-6-6-6zM47 26h6c2.8 0 5 2.2 5 5v.5c0 4.1 3.4 7.5 7.5 7.5H74c1.1 0 2 .9 2 2v1H24v-1c0-1.1.9-2 2-2h8.5c4.1 0 7.5-3.4 7.5-7.5V31c0-2.8 2.2-5 5-5z M74 72H26c-3.3 0-6-2.7-6-6v-2c0-1.1.9-2 2-2h56c1.1 0 2 .9 2 2v2c0 3.3-2.7 6-6 6z M74 57H26c-3.3 0-6-2.7-6-6v-2c0-1.1.9-2 2-2h56c1.1 0 2 .9 2 2v2c0 3.3-2.7 6-6 6z"/>
  </symbol>
  <symbol id="contact" viewBox="0 0 100 100">
    <path d="M80 71.2V74c0 3.3-2.7 6-6 6H26c-3.3 0-6-2.7-6-6v-2.8c0-7.3 8.5-11.7 16.5-15.2.3-.1.5-.2.8-.4.6-.3 1.3-.3 1.9.1C42.4 57.8 46.1 59 50 59c3.9 0 7.6-1.2 10.8-3.2.6-.4 1.3-.4 1.9-.1.3.1.5.2.8.4 8 3.4 16.5 7.8 16.5 15.1z M50 50.9c8.3 0 15-8.6 15-19.1 0-10.6-6.7-19.2-15-19.2s-15 8.7-15 19.2c0 10.5 6.7 19.1 15 19.1z"/>
  </symbol>
</svg> 